<svg xmlns="http://www.w3.org/2000/svg" version="1.1">
  <rect width="364.1373" height="91.659218" x="0" y="0" fill="blue"/>
  <rect width="5.8586302" height="6.614583" x="183.169592" y="85.7007" fill="black"/>
  <rect fill="black" width="23.62351" height="3.0238097" x="208.26265" y="68.29092"/>
  <rect width="23.623512" height="3.0238097" x="228" y="50.82112" fill="black"/>
  <rect fill="black" width="6.0476193" height="5.8586311" x="269.3058" y="72.16518"/>
  <rect fill="black" width="5.8586302" height="6.6145835" x="250.406998" y="85.48885"/>
  <rect width="23.623512" height="3.0238097" x="297.56187" y="49.09483" fill="black"/>
  <rect fill="black" width="6.0476193" height="30.049107" x="275.25893" y="62.05432"/>
  <rect width="31.938988" height="3.0238097" x="332.56508" y="62.1488" fill="black"/>
  <rect width="6.0476213" height="61.799107" x="358.45644" y="0.349701" fill="black"/>
  <rect width="12.095239" height="5.8586311" x="345.96249" y="34.62816" fill="black"/>
  <rect fill="black" width="23.623512" height="3.0238097" x="64.391457" y="47.34219"/>
  <rect fill="black" width="23.623512" height="3.0238097" x="144.438873" y="47.55589"/>
  <rect fill="black" width="10.519648" height="11.805261" x="61.08186" y="80.2944"/>
  <rect fill="black" width="23.623512" height="3.0238097" x="27.36232" y="65.53685"/>
  <rect fill="black" width="6.0476193" height="30.049107" x="111.17635" y="62.00935"/>
  <circle cx="6.00168" cy="87.24609" r="4.7036037" fill="green"/>
  <circle cx="106.826958" cy="87.39592" r="4.7036037" fill="red"/>
  <rect width="5.8586302" height="6.614583" x="117.524246" y="72.703" fill="black"/>
  <circle cx="127.853447" cy="87.54573" r="4.7036037" fill="red"/>
  <circle cx="200.752312" cy="25.52407" r="4.7036037" fill="red"/>
  <rect fill="black" width="23.62351" height="3.0238097" x="189.090366" y="30.30422"/>
  <circle cx="292.28668" cy="87.54572" r="4.7036037" fill="red"/>
  <circle cx="352.66042" cy="29.86858" r="4.7036037" fill="red"/>
  <circle cx="242.399704" cy="87.39592" r="4.7036037" fill="red"/>
  <circle cx="214.984333" cy="62.97676" r="4.7036037" fill="red"/>
</svg>